<?xml version="1.0" standalone="no"?>
<!DOCTYPE svg PUBLIC "-//W3C//DTD SVG 20010904//EN"
 "http://www.w3.org/TR/2001/REC-SVG-20010904/DTD/svg10.dtd">
<svg version="1.0" xmlns="http://www.w3.org/2000/svg"
 width="1024.000000pt" height="1024.000000pt" viewBox="0 0 1024.000000 1024.000000"
 preserveAspectRatio="xMidYMid meet">
<metadata>
Created by potrace 1.16, written by Peter Selinger 2001-2019
</metadata>
<g transform="translate(0.000000,1024.000000) scale(0.100000,-0.100000)"
fill="#FFFFFF" stroke="none">
<path d="M5435 7601 c-66 -37 -154 -85 -195 -108 -41 -22 -99 -55 -128 -72
-29 -17 -55 -31 -57 -31 -2 0 -34 -17 -72 -39 -89 -50 -162 -90 -248 -136 -38
-21 -110 -61 -160 -88 -49 -28 -119 -66 -155 -85 -36 -19 -87 -47 -115 -62
-27 -15 -102 -55 -165 -90 -63 -35 -137 -75 -165 -90 -58 -32 -135 -74 -220
-120 -33 -18 -69 -38 -80 -45 -11 -7 -63 -35 -115 -62 -52 -28 -126 -69 -165
-91 l-70 -40 -3 -1565 -2 -1566 27 -13 c16 -8 78 -40 138 -72 172 -91 282
-150 380 -201 50 -26 101 -55 115 -64 14 -9 41 -24 60 -33 19 -9 136 -66 260
-126 401 -196 462 -224 468 -217 4 4 5 425 3 936 -3 794 -1 929 11 929 8 0 18
-4 23 -9 6 -5 77 -44 160 -86 82 -42 161 -85 175 -94 45 -32 182 -101 199
-101 9 0 68 30 131 66 131 75 295 168 520 294 85 48 171 96 190 107 19 11 55
31 80 45 25 14 110 62 190 108 80 46 174 99 210 118 36 19 76 43 90 52 14 9
60 36 103 59 43 24 80 48 82 55 2 6 5 432 7 947 l4 937 -66 34 c-36 19 -119
63 -185 98 -66 35 -165 86 -220 114 -55 28 -102 53 -105 56 -3 3 -45 26 -95
51 -93 47 -221 115 -360 189 -44 24 -111 60 -150 80 -38 21 -96 52 -128 69
-32 17 -64 31 -70 31 -7 -1 -66 -31 -132 -69z m850 -1061 c-8 -13 -95 -53
-101 -47 -3 3 8 10 23 16 15 6 39 18 53 26 30 18 33 18 25 5z m-197 -115 c-16
-13 -28 -29 -28 -36 0 -6 -7 -8 -16 -5 -20 8 -67 -21 -59 -34 3 -6 -1 -7 -10
-3 -10 3 -20 2 -24 -3 -9 -13 -103 -46 -96 -34 3 6 12 10 20 10 7 0 15 4 17 8
5 12 202 121 218 121 3 0 -7 -11 -22 -24z m-253 -135 c-3 -5 -11 -10 -16 -10
-6 0 -7 5 -4 10 3 6 11 10 16 10 6 0 7 -4 4 -10z m-55 -89 c0 -39 5 -73 10
-76 6 -3 10 3 10 14 0 23 1 24 24 15 9 -3 13 -10 10 -15 -3 -5 1 -9 9 -9 8 0
18 -11 21 -25 4 -14 10 -24 14 -22 11 6 81 -72 71 -79 -5 -3 -7 -10 -3 -15 3
-5 10 -7 15 -4 8 6 13 -9 10 -29 -1 -4 5 -13 13 -20 8 -6 16 -20 18 -31 3 -15
10 -19 31 -17 23 2 27 -1 27 -21 0 -13 3 -27 7 -31 4 -3 8 -12 9 -19 7 -35 13
-62 15 -64 1 -2 2 -6 3 -10 4 -16 31 -68 37 -73 12 -9 49 -89 49 -105 0 -8 3
-15 8 -15 4 0 27 -17 50 -38 l44 -37 -54 0 c-55 1 -114 -7 -207 -26 -30 -6
-86 -11 -124 -12 -64 0 -70 2 -91 28 -13 16 -28 25 -34 21 -26 -16 -132 66
-132 103 0 11 -7 21 -15 25 -20 7 -1 50 32 72 124 81 -278 -125 -527 -271 -30
-17 -93 -52 -140 -77 -121 -65 -183 -99 -196 -109 -6 -5 -14 -6 -17 -2 -4 3
-7 115 -7 247 l0 241 118 64 c64 36 133 75 152 87 52 32 273 154 278 154 3 0
39 20 81 44 42 24 123 70 181 103 130 75 182 103 192 103 5 0 8 -31 8 -69z"/>
<path d="M5791 6074 c0 -11 3 -14 6 -6 3 7 2 16 -1 19 -3 4 -6 -2 -5 -13z"/>
</g>
</svg>
