<?xml version="1.0" standalone="no"?>
<!DOCTYPE svg PUBLIC "-//W3C//DTD SVG 20010904//EN"
 "http://www.w3.org/TR/2001/REC-SVG-20010904/DTD/svg10.dtd">
<svg version="1.0" xmlns="http://www.w3.org/2000/svg"
 width="1024.000000pt" height="1024.000000pt" viewBox="0 0 1024.000000 1024.000000"
 preserveAspectRatio="xMidYMid meet">
<metadata>
Created by potrace 1.16, written by Peter Selinger 2001-2019
</metadata>
<g transform="translate(0.000000,1024.000000) scale(0.100000,-0.100000)"
fill="#000000" stroke="none">
<path d="M0 5120 l0 -5120 5120 0 5120 0 0 5120 0 5120 -5120 0 -5120 0 0
-5120z m6258 2169 c48 -31 46 -32 -19 -9 -34 12 -40 11 -115 -26 -43 -21 -82
-40 -86 -42 -5 -2 -8 1 -8 6 0 5 8 12 18 15 18 6 92 49 127 73 26 19 28 18 83
-17z m-248 -88 c0 -5 -7 -11 -15 -15 -15 -5 -20 5 -8 17 9 10 23 9 23 -2z m45
-78 c-21 -114 -54 -302 -75 -433 -12 -69 -31 -167 -43 -219 l-22 -95 -50 -29
c-28 -16 -102 -58 -165 -92 -63 -34 -132 -71 -154 -84 -36 -21 -67 -21 -36 0
10 7 -1 8 -35 3 -56 -7 -88 -7 -125 2 -51 12 -305 30 -520 35 -49 2 -264 41
-313 58 -32 11 -64 18 -72 14 -23 -8 -18 11 8 26 35 23 269 156 302 173 78 39
221 122 227 132 4 6 8 7 8 1 0 -7 3 -7 8 0 4 6 34 23 67 39 33 16 62 32 65 35
3 4 16 12 30 18 14 7 61 32 105 57 44 24 113 61 153 82 39 21 72 42 72 46 0 5
8 8 18 8 10 0 28 9 40 20 12 12 22 18 22 15 0 -2 24 9 53 26 28 17 59 34 67
39 8 5 52 28 98 51 45 23 82 46 82 51 0 4 6 8 14 8 8 0 47 18 87 40 41 22 79
40 85 40 9 0 8 -18 -1 -67z m-95 47 c-8 -5 -22 -9 -30 -9 -10 0 -8 3 5 9 27
12 43 12 25 0z m525 0 c3 -5 2 -10 -4 -10 -5 0 -13 5 -16 10 -3 6 -2 10 4 10
5 0 13 -4 16 -10z m90 -50 c3 -6 -1 -7 -9 -4 -18 7 -21 14 -7 14 6 0 13 -4 16
-10z m-718 -6 c-3 -3 -12 -4 -19 -1 -8 3 -5 6 6 6 11 1 17 -2 13 -5z m-67 -38
c0 -2 -7 -6 -15 -10 -8 -3 -15 -1 -15 4 0 6 7 10 15 10 8 0 15 -2 15 -4z m-77
-43 c-7 -2 -19 -2 -25 0 -7 3 -2 5 12 5 14 0 19 -2 13 -5z m-26 -19 c-3 -3
-12 -4 -19 -1 -8 3 -5 6 6 6 11 1 17 -2 13 -5z m-49 -20 c-9 -9 -22 -14 -30
-11 -8 3 -4 8 12 15 35 15 37 14 18 -4z m-68 -38 c0 -2 -7 -7 -16 -10 -8 -3
-12 -2 -9 4 6 10 25 14 25 6z m-140 -76 c0 -5 -4 -10 -10 -10 -5 0 -10 5 -10
10 0 6 5 10 10 10 6 0 10 -4 10 -10z m-35 -20 c-3 -5 -10 -10 -16 -10 -5 0 -9
5 -9 10 0 6 7 10 16 10 8 0 12 -4 9 -10z m-49 -25 c-11 -8 -27 -15 -35 -15
-10 0 -7 6 9 14 33 19 50 19 26 1z m-61 -35 c-3 -5 -10 -10 -16 -10 -5 0 -9 5
-9 10 0 6 7 10 16 10 8 0 12 -4 9 -10z m-35 -17 c-1 -11 -91 -55 -98 -49 -3 3
4 9 14 13 10 3 21 9 24 12 7 9 44 30 53 30 4 1 7 -2 7 -6z m-145 -80 c-16 -9
-32 -19 -35 -22 -10 -12 -50 -31 -65 -31 -8 0 -15 -4 -15 -8 0 -5 -28 -23 -62
-41 -104 -53 -211 -112 -238 -129 -14 -9 -47 -28 -75 -43 -27 -14 -72 -38
-100 -54 -82 -46 -124 -69 -255 -140 -133 -73 -223 -123 -255 -142 -16 -9 -17
-13 -6 -27 7 -9 17 -16 22 -16 4 0 54 -22 111 -49 57 -28 218 -102 358 -165
l255 -116 2 -415 c1 -250 -2 -417 -8 -420 -5 -4 -9 -1 -9 4 0 6 -6 11 -14 11
-8 0 -27 5 -43 11 -15 7 -35 13 -43 14 -8 1 -37 10 -64 19 -26 10 -57 19 -67
21 -34 7 -213 57 -237 66 -13 5 -71 21 -130 34 -83 20 -107 23 -114 13 -4 -7
-8 -103 -8 -213 -1 -110 -3 -297 -5 -415 -3 -118 -7 -327 -10 -464 -3 -137 -7
-252 -10 -254 -3 -3 -5 507 -5 1134 -1 626 -2 1161 -4 1187 -4 47 -3 49 33 65
20 9 38 20 41 23 3 3 48 29 100 58 52 28 106 58 120 66 14 8 50 27 80 42 30
16 57 30 60 33 8 8 98 57 200 107 52 27 97 51 100 55 9 12 121 68 136 68 8 0
14 4 14 9 0 5 15 14 33 22 17 7 34 16 37 19 3 4 19 13 35 22 17 8 57 29 90 46
33 18 64 32 70 32 5 -1 -3 -8 -20 -17z m1312 -145 c-2 -13 -4 -5 -4 17 -1 22
1 32 4 23 2 -10 2 -28 0 -40z m0 -75 c-3 -10 -5 -2 -5 17 0 19 2 27 5 18 2
-10 2 -26 0 -35z m-7 -1078 c-11 -14 -166 -107 -235 -142 -22 -11 -58 -31 -80
-43 -22 -13 -67 -37 -100 -55 -74 -38 -137 -78 -152 -96 -12 -16 -16 -35 -38
-199 -16 -119 -24 -177 -30 -220 -2 -14 -9 -73 -16 -132 -13 -119 -13 -118
-99 -165 -30 -17 -111 -62 -179 -102 -68 -39 -133 -71 -145 -71 -11 1 -52 18
-91 40 l-70 38 -3 351 c-1 193 0 351 4 351 3 0 54 -26 113 -57 l107 -57 105
58 c57 33 136 78 175 102 39 24 73 44 76 44 3 0 35 17 69 38 91 55 499 282
508 282 4 0 22 13 41 29 l35 29 5 518 5 519 3 -524 c1 -354 -1 -528 -8 -536z
m-2423 -1767 c-3 -7 -5 -2 -5 12 0 14 2 19 5 13 2 -7 2 -19 0 -25z m21 -661
c11 -13 10 -15 -7 -10 -20 5 -21 12 -19 152 l2 146 5 -136 c4 -90 10 -141 19
-152z m47 -27 c3 -6 -1 -7 -9 -4 -18 7 -21 14 -7 14 6 0 13 -4 16 -10z m692
-262 c-2 -13 -4 -3 -4 22 0 25 2 35 4 23 2 -13 2 -33 0 -45z m8 -78 c3 -5 1
-10 -4 -10 -6 0 -11 5 -11 10 0 6 2 10 4 10 3 0 8 -4 11 -10z"/>
</g>
</svg>
